<svg width="1080" height="1080" viewBox="0 0 1080 1080" fill="none" xmlns="http://www.w3.org/2000/svg">
<rect width="1080" height="1080" rx="120" fill="url(#paint0_linear_88_9)"/>
<g filter="url(#filter0_d_88_9)">
<path fill-rule="evenodd" clip-rule="evenodd" d="M755.06 256.528C695.195 211.016 620.502 184 539.5 184C342.61 184 183 343.61 183 540.5C183 737.389 342.61 897 539.5 897C736.389 897 896 737.389 896 540.5C896 514.91 893.304 489.95 888.18 465.888L806.194 554.206C799.06 695.318 682.385 807.539 539.5 807.539C392.018 807.539 272.46 687.982 272.46 540.5C272.46 393.018 392.018 273.46 539.5 273.46C596.983 273.46 650.224 291.623 693.796 322.522L755.06 256.528Z" fill="white"/>
</g>
<g filter="url(#filter1_d_88_9)">
<path fill-rule="evenodd" clip-rule="evenodd" d="M950.99 222.356C971.229 241.143 972.405 272.779 953.618 293.018L578.118 697.518C568.876 707.472 555.983 713.239 542.402 713.492C528.821 713.744 515.722 708.46 506.118 698.856L360.118 552.856C340.592 533.329 340.592 501.671 360.118 482.145C379.644 462.619 411.302 462.619 430.828 482.145L540.134 591.451L880.329 224.983C899.116 204.745 930.752 203.568 950.99 222.356Z" fill="white"/>
</g>
<defs>
<filter id="filter0_d_88_9" x="175" y="180" width="729" height="729" filterUnits="userSpaceOnUse" color-interpolation-filters="sRGB">
<feFlood flood-opacity="0" result="BackgroundImageFix"/>
<feColorMatrix in="SourceAlpha" type="matrix" values="0 0 0 0 0 0 0 0 0 0 0 0 0 0 0 0 0 0 127 0" result="hardAlpha"/>
<feOffset dy="4"/>
<feGaussianBlur stdDeviation="4"/>
<feComposite in2="hardAlpha" operator="out"/>
<feColorMatrix type="matrix" values="0 0 0 0 0 0 0 0 0 0 0 0 0 0 0 0 0 0 0.25 0"/>
<feBlend mode="normal" in2="BackgroundImageFix" result="effect1_dropShadow_88_9"/>
<feBlend mode="normal" in="SourceGraphic" in2="effect1_dropShadow_88_9" result="shape"/>
</filter>
<filter id="filter1_d_88_9" x="337.473" y="205" width="637.5" height="520.5" filterUnits="userSpaceOnUse" color-interpolation-filters="sRGB">
<feFlood flood-opacity="0" result="BackgroundImageFix"/>
<feColorMatrix in="SourceAlpha" type="matrix" values="0 0 0 0 0 0 0 0 0 0 0 0 0 0 0 0 0 0 127 0" result="hardAlpha"/>
<feOffset dy="4"/>
<feGaussianBlur stdDeviation="4"/>
<feComposite in2="hardAlpha" operator="out"/>
<feColorMatrix type="matrix" values="0 0 0 0 0 0 0 0 0 0 0 0 0 0 0 0 0 0 0.25 0"/>
<feBlend mode="normal" in2="BackgroundImageFix" result="effect1_dropShadow_88_9"/>
<feBlend mode="normal" in="SourceGraphic" in2="effect1_dropShadow_88_9" result="shape"/>
</filter>
<linearGradient id="paint0_linear_88_9" x1="727.5" y1="-3.62595e-06" x2="-1.05053e-05" y2="1080" gradientUnits="userSpaceOnUse">
<stop stop-color="#37374C"/>
<stop offset="1" stop-color="#09090B"/>
</linearGradient>
</defs>
</svg>
