<svg width="1080" height="1080" viewBox="0 0 1080 1080" fill="none" xmlns="http://www.w3.org/2000/svg">
<rect width="1080" height="1080" rx="170" fill="#0F172A"/>
<path d="M787.465 467.8H674.065V889H594.865V467.8H516.565V430.9L594.865 403.9V376C594.865 334.6 600.565 301 611.965 275.2C623.965 249.4 641.065 230.5 663.265 218.5C685.465 206.5 712.165 200.5 743.365 200.5C761.965 200.5 778.765 202.3 793.765 205.9C809.365 208.9 822.865 212.5 834.265 216.7L813.565 278.8C803.965 275.8 793.165 272.8 781.165 269.8C769.765 266.8 757.765 265.3 745.165 265.3C721.165 265.3 703.165 274.3 691.165 292.3C679.765 309.7 674.065 337.3 674.065 375.1V406.6H787.465V467.8Z" fill="white"/>
<path d="M432.78 406.6V889H354.48V406.6H432.78ZM394.08 225.7C406.08 225.7 416.58 229.9 425.58 238.3C434.58 246.1 439.08 258.7 439.08 276.1C439.08 292.9 434.58 305.5 425.58 313.9C416.58 322.3 406.08 326.5 394.08 326.5C381.48 326.5 370.68 322.3 361.68 313.9C352.68 305.5 348.18 292.9 348.18 276.1C348.18 258.7 352.68 246.1 361.68 238.3C370.68 229.9 381.48 225.7 394.08 225.7Z" fill="white"/>
</svg>
