<svg width="1080" height="1080" viewBox="0 0 1080 1080" fill="none" xmlns="http://www.w3.org/2000/svg">
<rect width="1080" height="1080" rx="540" fill="url(#paint0_linear_5_3)"/>
<g filter="url(#filter0_d_5_3)">
<path fill-rule="evenodd" clip-rule="evenodd" d="M799.089 603.401C770.808 720.53 665.315 807.539 539.5 807.539C392.018 807.539 272.46 687.982 272.46 540.5C272.46 393.018 392.018 273.46 539.5 273.46C594.454 273.46 645.531 290.06 687.991 318.519L752.162 254.348C692.793 210.154 619.201 184 539.5 184C342.61 184 183 343.61 183 540.5C183 737.389 342.61 897 539.5 897C736.389 897 896 737.389 896 540.5C896 529.529 895.504 518.674 894.534 507.955L799.089 603.401Z" fill="white"/>
</g>
<path d="M396 516.5L542 662.5L870.5 334" stroke="white" stroke-width="100" stroke-linecap="round" stroke-linejoin="round"/>
<defs>
<filter id="filter0_d_5_3" x="175" y="180" width="729" height="729" filterUnits="userSpaceOnUse" color-interpolation-filters="sRGB">
<feFlood flood-opacity="0" result="BackgroundImageFix"/>
<feColorMatrix in="SourceAlpha" type="matrix" values="0 0 0 0 0 0 0 0 0 0 0 0 0 0 0 0 0 0 127 0" result="hardAlpha"/>
<feOffset dy="4"/>
<feGaussianBlur stdDeviation="4"/>
<feComposite in2="hardAlpha" operator="out"/>
<feColorMatrix type="matrix" values="0 0 0 0 0 0 0 0 0 0 0 0 0 0 0 0 0 0 0.25 0"/>
<feBlend mode="normal" in2="BackgroundImageFix" result="effect1_dropShadow_5_3"/>
<feBlend mode="normal" in="SourceGraphic" in2="effect1_dropShadow_5_3" result="shape"/>
</filter>
<linearGradient id="paint0_linear_5_3" x1="285.5" y1="274" x2="1118.5" y2="1104.5" gradientUnits="userSpaceOnUse">
<stop stop-color="#202639"/>
<stop offset="1" stop-color="#3F4C77"/>
</linearGradient>
</defs>
</svg>
