<svg width="1080" height="1080" viewBox="0 0 1080 1080" fill="none" xmlns="http://www.w3.org/2000/svg">
<rect width="1080" height="1080" rx="256" fill="white"/>
<path d="M696.103 561.364V685H670.385V561.364H696.103Z" fill="url(#paint0_linear_45_35)"/>
<path d="M629.167 685V592.273H654.884V685H629.167ZM642.086 580.32C638.263 580.32 634.982 579.052 632.246 576.516C629.549 573.941 628.201 570.862 628.201 567.28C628.201 563.738 629.549 560.7 632.246 558.164C634.982 555.588 638.263 554.3 642.086 554.3C645.909 554.3 649.169 555.588 651.866 558.164C654.602 560.7 655.971 563.738 655.971 567.28C655.971 570.862 654.602 573.941 651.866 576.516C649.169 579.052 645.909 580.32 642.086 580.32Z" fill="url(#paint1_linear_45_35)"/>
<path d="M576.388 686.811C566.89 686.811 558.72 684.799 551.878 680.774C545.076 676.709 539.844 671.075 536.182 663.871C532.56 656.667 530.749 648.376 530.749 638.999C530.749 629.5 532.58 621.169 536.242 614.006C539.945 606.802 545.197 601.187 551.999 597.163C558.8 593.098 566.89 591.065 576.267 591.065C584.357 591.065 591.44 592.534 597.517 595.472C603.594 598.41 608.404 602.535 611.945 607.848C615.487 613.16 617.439 619.399 617.801 626.562H593.533C592.848 621.934 591.037 618.211 588.099 615.394C585.202 612.537 581.398 611.108 576.69 611.108C572.705 611.108 569.224 612.195 566.246 614.368C563.308 616.501 561.014 619.62 559.364 623.725C557.714 627.83 556.888 632.801 556.888 638.636C556.888 644.553 557.693 649.583 559.303 653.729C560.953 657.874 563.268 661.033 566.246 663.207C569.224 665.38 572.705 666.467 576.69 666.467C579.628 666.467 582.264 665.863 584.598 664.656C586.973 663.448 588.924 661.697 590.454 659.403C592.023 657.069 593.05 654.272 593.533 651.012H617.801C617.399 658.095 615.467 664.334 612.006 669.727C608.585 675.079 603.856 679.265 597.819 682.283C591.782 685.302 584.638 686.811 576.388 686.811Z" fill="url(#paint2_linear_45_35)"/>
<path d="M467.42 686.751C461.504 686.751 456.232 685.724 451.603 683.672C446.975 681.579 443.312 678.5 440.616 674.435C437.96 670.33 436.632 665.219 436.632 659.102C436.632 653.95 437.577 649.624 439.469 646.122C441.361 642.621 443.936 639.803 447.196 637.67C450.456 635.537 454.159 633.928 458.304 632.841C462.49 631.754 466.877 630.99 471.465 630.547C476.858 629.983 481.204 629.46 484.504 628.977C487.805 628.454 490.199 627.689 491.688 626.683C493.178 625.677 493.922 624.188 493.922 622.216V621.854C493.922 618.03 492.715 615.072 490.3 612.979C487.925 610.887 484.545 609.84 480.158 609.84C475.53 609.84 471.847 610.866 469.11 612.919C466.374 614.931 464.562 617.467 463.677 620.526L439.892 618.594C441.099 612.959 443.473 608.089 447.015 603.984C450.557 599.839 455.125 596.66 460.719 594.446C466.353 592.192 472.873 591.065 480.279 591.065C485.43 591.065 490.36 591.669 495.069 592.876C499.818 594.084 504.024 595.955 507.686 598.491C511.389 601.026 514.307 604.286 516.44 608.271C518.573 612.215 519.639 616.944 519.639 622.457V685H495.25V672.141H494.526C493.037 675.039 491.044 677.595 488.549 679.808C486.054 681.981 483.056 683.692 479.554 684.94C476.053 686.147 472.008 686.751 467.42 686.751ZM474.785 669.002C478.568 669.002 481.909 668.258 484.806 666.768C487.704 665.239 489.978 663.187 491.628 660.611C493.278 658.035 494.103 655.117 494.103 651.857V642.017C493.298 642.54 492.192 643.023 490.783 643.466C489.415 643.868 487.865 644.251 486.134 644.613C484.404 644.935 482.673 645.237 480.943 645.518C479.212 645.76 477.643 645.981 476.234 646.182C473.215 646.625 470.579 647.33 468.326 648.295C466.072 649.261 464.321 650.569 463.073 652.219C461.826 653.829 461.202 655.842 461.202 658.256C461.202 661.758 462.47 664.434 465.005 666.285C467.581 668.097 470.841 669.002 474.785 669.002Z" fill="url(#paint3_linear_45_35)"/>
<path d="M433.687 592.273V611.591H376.457V592.273H433.687ZM389.557 685V585.572C389.557 578.851 390.865 573.277 393.481 568.849C396.138 564.422 399.76 561.102 404.348 558.888C408.936 556.675 414.148 555.568 419.984 555.568C423.928 555.568 427.53 555.87 430.79 556.474C434.09 557.077 436.545 557.621 438.155 558.104L433.567 577.422C432.56 577.1 431.313 576.798 429.824 576.516C428.375 576.235 426.886 576.094 425.356 576.094C421.573 576.094 418.937 576.979 417.448 578.75C415.959 580.481 415.214 582.915 415.214 586.055V685H389.557Z" fill="url(#paint4_linear_45_35)"/>
<path d="M883.726 520.811C874.349 520.811 866.239 518.819 859.397 514.835C852.595 510.81 847.343 505.216 843.641 498.052C839.938 490.848 838.087 482.497 838.087 472.999C838.087 463.42 839.938 455.049 843.641 447.885C847.343 440.681 852.595 435.087 859.397 431.102C866.239 427.078 874.349 425.065 883.726 425.065C893.103 425.065 901.193 427.078 907.994 431.102C914.836 435.087 920.108 440.681 923.811 447.885C927.514 455.049 929.365 463.42 929.365 472.999C929.365 482.497 927.514 490.848 923.811 498.052C920.108 505.216 914.836 510.81 907.994 514.835C901.193 518.819 893.103 520.811 883.726 520.811ZM883.847 500.889C888.113 500.889 891.675 499.682 894.532 497.267C897.389 494.812 899.543 491.472 900.992 487.246C902.481 483.02 903.225 478.21 903.225 472.817C903.225 467.424 902.481 462.615 900.992 458.389C899.543 454.163 897.389 450.823 894.532 448.368C891.675 445.913 888.113 444.685 883.847 444.685C879.54 444.685 875.918 445.913 872.98 448.368C870.082 450.823 867.889 454.163 866.4 458.389C864.951 462.615 864.227 467.424 864.227 472.817C864.227 478.21 864.951 483.02 866.4 487.246C867.889 491.472 870.082 494.812 872.98 497.267C875.918 499.682 879.54 500.889 883.847 500.889Z" fill="url(#paint5_linear_45_35)"/>
<path d="M800.611 519V426.273H826.329V519H800.611ZM813.53 414.32C809.707 414.32 806.427 413.052 803.69 410.516C800.994 407.941 799.645 404.862 799.645 401.28C799.645 397.738 800.994 394.7 803.69 392.164C806.427 389.588 809.707 388.3 813.53 388.3C817.354 388.3 820.614 389.588 823.31 392.164C826.047 394.7 827.415 397.738 827.415 401.28C827.415 404.862 826.047 407.941 823.31 410.516C820.614 413.052 817.354 414.32 813.53 414.32Z" fill="url(#paint6_linear_45_35)"/>
<path d="M736.151 519V426.273H761.083V442.452H762.049C763.739 436.697 766.577 432.35 770.561 429.412C774.546 426.434 779.134 424.945 784.325 424.945C785.613 424.945 787.002 425.025 788.491 425.186C789.98 425.347 791.288 425.568 792.415 425.85V448.67C791.207 448.308 789.537 447.986 787.404 447.704C785.271 447.422 783.319 447.281 781.548 447.281C777.765 447.281 774.385 448.106 771.406 449.756C768.468 451.366 766.134 453.62 764.404 456.518C762.713 459.415 761.868 462.756 761.868 466.539V519H736.151Z" fill="url(#paint7_linear_45_35)"/>
<path d="M669.079 520.751C663.163 520.751 657.891 519.724 653.262 517.672C648.634 515.579 644.972 512.5 642.275 508.435C639.619 504.33 638.291 499.219 638.291 493.102C638.291 487.95 639.237 483.624 641.128 480.122C643.02 476.621 645.596 473.804 648.855 471.67C652.115 469.537 655.818 467.928 659.963 466.841C664.149 465.754 668.536 464.99 673.124 464.547C678.517 463.983 682.864 463.46 686.164 462.977C689.464 462.454 691.859 461.689 693.348 460.683C694.837 459.677 695.581 458.188 695.581 456.216V455.854C695.581 452.03 694.374 449.072 691.959 446.979C689.585 444.887 686.204 443.84 681.817 443.84C677.189 443.84 673.506 444.866 670.77 446.919C668.033 448.931 666.222 451.467 665.336 454.526L641.551 452.594C642.758 446.959 645.133 442.089 648.674 437.984C652.216 433.839 656.784 430.66 662.378 428.446C668.013 426.192 674.533 425.065 681.938 425.065C687.089 425.065 692.019 425.669 696.728 426.876C701.477 428.084 705.683 429.955 709.345 432.491C713.048 435.026 715.966 438.286 718.099 442.271C720.232 446.215 721.299 450.944 721.299 456.457V519H696.909V506.141H696.185C694.696 509.039 692.704 511.595 690.208 513.808C687.713 515.982 684.715 517.692 681.213 518.94C677.712 520.147 673.667 520.751 669.079 520.751ZM676.444 503.002C680.227 503.002 683.568 502.258 686.466 500.768C689.363 499.239 691.637 497.187 693.287 494.611C694.937 492.035 695.762 489.117 695.762 485.857V476.017C694.958 476.54 693.851 477.023 692.442 477.466C691.074 477.868 689.524 478.251 687.794 478.613C686.063 478.935 684.333 479.237 682.602 479.518C680.871 479.76 679.302 479.981 677.893 480.183C674.875 480.625 672.239 481.33 669.985 482.295C667.731 483.261 665.98 484.569 664.733 486.219C663.485 487.829 662.861 489.842 662.861 492.256C662.861 495.758 664.129 498.434 666.664 500.286C669.24 502.097 672.5 503.002 676.444 503.002Z" fill="url(#paint8_linear_45_35)"/>
<path d="M630.985 426.273V445.591H575.143V426.273H630.985ZM587.821 404.057H613.538V490.506C613.538 492.88 613.9 494.732 614.625 496.06C615.349 497.348 616.355 498.253 617.643 498.776C618.971 499.299 620.501 499.561 622.231 499.561C623.439 499.561 624.646 499.46 625.853 499.259C627.061 499.018 627.987 498.837 628.63 498.716L632.675 517.853C631.387 518.255 629.576 518.718 627.242 519.241C624.908 519.805 622.07 520.147 618.73 520.268C612.532 520.509 607.099 519.684 602.43 517.793C597.802 515.901 594.2 512.963 591.624 508.979C589.048 504.994 587.781 499.964 587.821 493.886V404.057Z" fill="url(#paint9_linear_45_35)"/>
<path d="M506.729 465.392V519H481.011V426.273H505.521V442.633H506.608C508.66 437.24 512.101 432.974 516.931 429.835C521.761 426.655 527.616 425.065 534.498 425.065C540.938 425.065 546.552 426.474 551.341 429.291C556.131 432.108 559.854 436.133 562.51 441.365C565.166 446.557 566.494 452.755 566.494 459.959V519H540.777V464.547C540.817 458.872 539.368 454.445 536.43 451.266C533.492 448.046 529.448 446.436 524.296 446.436C520.835 446.436 517.776 447.181 515.12 448.67C512.504 450.159 510.451 452.332 508.962 455.19C507.513 458.007 506.769 461.408 506.729 465.392Z" fill="url(#paint10_linear_45_35)"/>
<path d="M426.768 520.811C417.23 520.811 409.02 518.879 402.138 515.016C395.296 511.112 390.023 505.598 386.321 498.474C382.618 491.311 380.767 482.839 380.767 473.059C380.767 463.521 382.618 455.149 386.321 447.945C390.023 440.741 395.235 435.127 401.956 431.102C408.718 427.078 416.646 425.065 425.742 425.065C431.859 425.065 437.554 426.051 442.826 428.023C448.139 429.955 452.767 432.873 456.711 436.777C460.696 440.681 463.795 445.591 466.008 451.507C468.222 457.383 469.329 464.265 469.329 472.153V479.217H391.03V463.279H445.12C445.12 459.576 444.316 456.296 442.706 453.439C441.096 450.581 438.862 448.348 436.005 446.738C433.187 445.088 429.907 444.263 426.164 444.263C422.261 444.263 418.799 445.168 415.781 446.979C412.803 448.75 410.468 451.145 408.778 454.163C407.088 457.142 406.222 460.462 406.182 464.124V479.277C406.182 483.865 407.027 487.829 408.718 491.17C410.448 494.51 412.883 497.086 416.022 498.897C419.162 500.708 422.884 501.614 427.191 501.614C430.048 501.614 432.664 501.211 435.039 500.406C437.413 499.601 439.446 498.394 441.136 496.784C442.826 495.174 444.114 493.202 445 490.868L468.785 492.438C467.578 498.152 465.103 503.143 461.36 507.409C457.657 511.635 452.868 514.935 446.992 517.31C441.156 519.644 434.415 520.811 426.768 520.811Z" fill="url(#paint11_linear_45_35)"/>
<path d="M379.437 426.273L347.019 519H318.042L285.624 426.273H312.79L332.048 492.619H333.013L352.211 426.273H379.437Z" fill="url(#paint12_linear_45_35)"/>
<path d="M221.374 465.392V519H195.657V426.273H220.167V442.633H221.254C223.306 437.24 226.747 432.974 231.577 429.835C236.406 426.655 242.262 425.065 249.144 425.065C255.584 425.065 261.198 426.474 265.987 429.291C270.776 432.108 274.499 436.133 277.156 441.365C279.812 446.557 281.14 452.755 281.14 459.959V519H255.423V464.547C255.463 458.872 254.014 454.445 251.076 451.266C248.138 448.046 244.093 446.436 238.942 446.436C235.481 446.436 232.422 447.181 229.766 448.67C227.15 450.159 225.097 452.332 223.608 455.19C222.159 458.007 221.414 461.408 221.374 465.392Z" fill="url(#paint13_linear_45_35)"/>
<path d="M154.439 519V426.273H180.156V519H154.439ZM167.358 414.32C163.534 414.32 160.254 413.052 157.517 410.516C154.821 407.941 153.473 404.862 153.473 401.28C153.473 397.738 154.821 394.7 157.517 392.164C160.254 389.588 163.534 388.3 167.358 388.3C171.181 388.3 174.441 389.588 177.137 392.164C179.874 394.7 181.243 397.738 181.243 401.28C181.243 404.862 179.874 407.941 177.137 410.516C174.441 413.052 171.181 414.32 167.358 414.32Z" fill="url(#paint14_linear_45_35)"/>
<defs>
<linearGradient id="paint0_linear_45_35" x1="1139.5" y1="930.5" x2="130.5" y2="388" gradientUnits="userSpaceOnUse">
<stop stop-color="#090979"/>
<stop offset="1" stop-color="#00D4FF"/>
</linearGradient>
<linearGradient id="paint1_linear_45_35" x1="1139.5" y1="930.5" x2="130.5" y2="388" gradientUnits="userSpaceOnUse">
<stop stop-color="#090979"/>
<stop offset="1" stop-color="#00D4FF"/>
</linearGradient>
<linearGradient id="paint2_linear_45_35" x1="1139.5" y1="930.5" x2="130.5" y2="388" gradientUnits="userSpaceOnUse">
<stop stop-color="#090979"/>
<stop offset="1" stop-color="#00D4FF"/>
</linearGradient>
<linearGradient id="paint3_linear_45_35" x1="1139.5" y1="930.5" x2="130.5" y2="388" gradientUnits="userSpaceOnUse">
<stop stop-color="#090979"/>
<stop offset="1" stop-color="#00D4FF"/>
</linearGradient>
<linearGradient id="paint4_linear_45_35" x1="1139.5" y1="930.5" x2="130.5" y2="388" gradientUnits="userSpaceOnUse">
<stop stop-color="#090979"/>
<stop offset="1" stop-color="#00D4FF"/>
</linearGradient>
<linearGradient id="paint5_linear_45_35" x1="1139.5" y1="930.5" x2="130.5" y2="388" gradientUnits="userSpaceOnUse">
<stop stop-color="#090979"/>
<stop offset="1" stop-color="#00D4FF"/>
</linearGradient>
<linearGradient id="paint6_linear_45_35" x1="1139.5" y1="930.5" x2="130.5" y2="388" gradientUnits="userSpaceOnUse">
<stop stop-color="#090979"/>
<stop offset="1" stop-color="#00D4FF"/>
</linearGradient>
<linearGradient id="paint7_linear_45_35" x1="1139.5" y1="930.5" x2="130.5" y2="388" gradientUnits="userSpaceOnUse">
<stop stop-color="#090979"/>
<stop offset="1" stop-color="#00D4FF"/>
</linearGradient>
<linearGradient id="paint8_linear_45_35" x1="1139.5" y1="930.5" x2="130.5" y2="388" gradientUnits="userSpaceOnUse">
<stop stop-color="#090979"/>
<stop offset="1" stop-color="#00D4FF"/>
</linearGradient>
<linearGradient id="paint9_linear_45_35" x1="1139.5" y1="930.5" x2="130.5" y2="388" gradientUnits="userSpaceOnUse">
<stop stop-color="#090979"/>
<stop offset="1" stop-color="#00D4FF"/>
</linearGradient>
<linearGradient id="paint10_linear_45_35" x1="1139.5" y1="930.5" x2="130.5" y2="388" gradientUnits="userSpaceOnUse">
<stop stop-color="#090979"/>
<stop offset="1" stop-color="#00D4FF"/>
</linearGradient>
<linearGradient id="paint11_linear_45_35" x1="1139.5" y1="930.5" x2="130.5" y2="388" gradientUnits="userSpaceOnUse">
<stop stop-color="#090979"/>
<stop offset="1" stop-color="#00D4FF"/>
</linearGradient>
<linearGradient id="paint12_linear_45_35" x1="1139.5" y1="930.5" x2="130.5" y2="388" gradientUnits="userSpaceOnUse">
<stop stop-color="#090979"/>
<stop offset="1" stop-color="#00D4FF"/>
</linearGradient>
<linearGradient id="paint13_linear_45_35" x1="1139.5" y1="930.5" x2="130.5" y2="388" gradientUnits="userSpaceOnUse">
<stop stop-color="#090979"/>
<stop offset="1" stop-color="#00D4FF"/>
</linearGradient>
<linearGradient id="paint14_linear_45_35" x1="1139.5" y1="930.5" x2="130.5" y2="388" gradientUnits="userSpaceOnUse">
<stop stop-color="#090979"/>
<stop offset="1" stop-color="#00D4FF"/>
</linearGradient>
</defs>
</svg>
