<svg width="935" height="90" viewBox="0 0 935 90" fill="none" xmlns="http://www.w3.org/2000/svg">
<path d="M893.646 25.8182L905.062 47.5575L916.762 25.8182H934.453L916.438 56.9091L934.939 88H917.329L905.062 66.5035L892.998 88H875.186L893.646 56.9091L875.834 25.8182H893.646Z" fill="black"/>
<path d="M778.674 88V25.8182H795.11V36.7891H795.839C797.134 33.1456 799.293 30.2713 802.316 28.1662C805.339 26.0611 808.955 25.0085 813.165 25.0085C817.43 25.0085 821.059 26.0746 824.055 28.2067C827.051 30.3118 829.048 33.1726 830.047 36.7891H830.694C831.963 33.2266 834.257 30.3793 837.577 28.2472C840.923 26.0881 844.877 25.0085 849.438 25.0085C855.241 25.0085 859.95 26.8573 863.567 30.5547C867.21 34.2252 869.032 39.434 869.032 46.1811V88H851.827V49.5817C851.827 46.1271 850.909 43.5362 849.074 41.809C847.239 40.0817 844.944 39.2181 842.192 39.2181C839.061 39.2181 836.618 40.2166 834.864 42.2138C833.11 44.184 832.233 46.7884 832.233 50.027V88H815.513V49.2174C815.513 46.1676 814.636 43.7387 812.882 41.9304C811.155 40.1222 808.874 39.2181 806.04 39.2181C804.124 39.2181 802.397 39.7039 800.859 40.6754C799.347 41.6201 798.146 42.956 797.256 44.6833C796.365 46.3835 795.92 48.3807 795.92 50.6747V88H778.674Z" fill="black"/>
<path d="M758.219 89.0526C755.547 89.0526 753.253 88.108 751.337 86.2188C749.448 84.3026 748.503 82.0085 748.503 79.3367C748.503 76.6918 749.448 74.4247 751.337 72.5355C753.253 70.6463 755.547 69.7017 758.219 69.7017C760.81 69.7017 763.077 70.6463 765.02 72.5355C766.963 74.4247 767.935 76.6918 767.935 79.3367C767.935 81.1179 767.476 82.7507 766.558 84.2351C765.668 85.6925 764.494 86.8665 763.036 87.7571C761.579 88.6208 759.973 89.0526 758.219 89.0526Z" fill="black"/>
<path d="M737.744 5.09088V88H720.498V5.09088H737.744Z" fill="black"/>
<path d="M692.858 88V25.8182H710.103V88H692.858ZM701.521 17.8025C698.957 17.8025 696.757 16.9524 694.922 15.2521C693.114 13.5248 692.21 11.4602 692.21 9.05821C692.21 6.68321 693.114 4.64557 694.922 2.94528C696.757 1.21801 698.957 0.35437 701.521 0.35437C704.085 0.35437 706.271 1.21801 708.079 2.94528C709.914 4.64557 710.832 6.68321 710.832 9.05821C710.832 11.4602 709.914 13.5248 708.079 15.2521C706.271 16.9524 704.085 17.8025 701.521 17.8025Z" fill="black"/>
<path d="M657.465 89.2145C651.095 89.2145 645.617 87.8651 641.029 85.1662C636.467 82.4404 632.959 78.662 630.503 73.831C628.074 69 626.859 63.4404 626.859 57.152C626.859 50.7827 628.087 45.196 630.543 40.3921C633.026 35.5611 636.548 31.7962 641.109 29.0973C645.671 26.3715 651.095 25.0085 657.384 25.0085C662.808 25.0085 667.558 25.9936 671.634 27.9638C675.709 29.934 678.934 32.7003 681.309 36.2628C683.684 39.8253 684.993 44.0085 685.236 48.8125H668.962C668.503 45.7088 667.289 43.2124 665.318 41.3232C663.375 39.407 660.825 38.4489 657.667 38.4489C654.995 38.4489 652.661 39.1776 650.664 40.635C648.693 42.0654 647.155 44.157 646.048 46.9098C644.942 49.6627 644.389 52.9958 644.389 56.9091C644.389 60.8764 644.928 64.25 646.008 67.0299C647.114 69.8097 648.666 71.9283 650.664 73.3857C652.661 74.8431 654.995 75.5718 657.667 75.5718C659.637 75.5718 661.405 75.1669 662.97 74.3573C664.563 73.5476 665.872 72.3736 666.897 70.8353C667.95 69.2699 668.638 67.3942 668.962 65.2081H685.236C684.966 69.9581 683.671 74.1414 681.35 77.7578C679.056 81.3473 675.884 84.1541 671.836 86.1783C667.788 88.2024 662.997 89.2145 657.465 89.2145Z" fill="black"/>
<path d="M584.392 89.174C580.425 89.174 576.889 88.4858 573.786 87.1094C570.682 85.706 568.226 83.6414 566.418 80.9155C564.636 78.1627 563.746 74.7351 563.746 70.6328C563.746 67.1783 564.38 64.277 565.648 61.929C566.917 59.581 568.644 57.6918 570.83 56.2614C573.016 54.831 575.499 53.7514 578.279 53.0228C581.086 52.2941 584.028 51.7813 587.104 51.4844C590.721 51.1066 593.636 50.7557 595.849 50.4318C598.062 50.081 599.668 49.5682 600.666 48.8935C601.665 48.2188 602.164 47.2202 602.164 45.8978V45.6549C602.164 43.0909 601.354 41.1073 599.735 39.7039C598.143 38.3004 595.876 37.5987 592.934 37.5987C589.83 37.5987 587.361 38.287 585.526 39.6634C583.69 41.0128 582.476 42.7131 581.882 44.7642L565.932 43.4688C566.741 39.6904 568.334 36.4247 570.709 33.6719C573.084 30.8921 576.147 28.76 579.898 27.2756C583.677 25.7642 588.049 25.0085 593.015 25.0085C596.469 25.0085 599.776 25.4134 602.933 26.223C606.118 27.0327 608.938 28.2877 611.394 29.9879C613.877 31.6882 615.834 33.8743 617.264 36.5462C618.695 39.1911 619.41 42.3622 619.41 46.0597V88H603.055V79.3772H602.569C601.57 81.3203 600.234 83.0341 598.561 84.5185C596.888 85.9759 594.877 87.1229 592.529 87.9595C590.181 88.7692 587.469 89.174 584.392 89.174ZM589.331 77.272C591.868 77.272 594.108 76.7727 596.051 75.7742C597.994 74.7486 599.519 73.3722 600.626 71.6449C601.732 69.9176 602.286 67.961 602.286 65.7749V59.1762C601.746 59.527 601.004 59.8509 600.059 60.1478C599.141 60.4176 598.102 60.674 596.942 60.9169C595.781 61.1328 594.621 61.3352 593.46 61.5242C592.3 61.6861 591.247 61.8345 590.303 61.9695C588.278 62.2664 586.511 62.7387 584.999 63.3864C583.488 64.0341 582.314 64.9112 581.477 66.0178C580.641 67.0973 580.222 68.4468 580.222 70.0661C580.222 72.4141 581.072 74.2088 582.773 75.4503C584.5 76.6648 586.686 77.272 589.331 77.272Z" fill="black"/>
<path d="M561.771 25.8182V38.7727H523.394V25.8182H561.771ZM532.178 88V21.3246C532.178 16.8175 533.055 13.0795 534.81 10.1108C536.591 7.14203 539.02 4.91547 542.097 3.43109C545.173 1.94672 548.668 1.20453 552.582 1.20453C555.227 1.20453 557.642 1.40694 559.828 1.81178C562.041 2.21661 563.688 2.58095 564.767 2.90482L561.69 15.8594C561.016 15.6435 560.179 15.441 559.18 15.2521C558.209 15.0632 557.21 14.9687 556.185 14.9687C553.648 14.9687 551.88 15.5625 550.881 16.75C549.883 17.9105 549.384 19.5433 549.384 21.6484V88H532.178Z" fill="black"/>
<path d="M489.934 89.2145C483.645 89.2145 478.207 87.8786 473.619 85.2067C469.058 82.5078 465.536 78.7564 463.053 73.9524C460.57 69.1215 459.328 63.5213 459.328 57.152C459.328 50.7287 460.57 45.1151 463.053 40.3111C465.536 35.4801 469.058 31.7287 473.619 29.0568C478.207 26.358 483.645 25.0085 489.934 25.0085C496.222 25.0085 501.647 26.358 506.208 29.0568C510.796 31.7287 514.331 35.4801 516.814 40.3111C519.297 45.1151 520.539 50.7287 520.539 57.152C520.539 63.5213 519.297 69.1215 516.814 73.9524C514.331 78.7564 510.796 82.5078 506.208 85.2067C501.647 87.8786 496.222 89.2145 489.934 89.2145ZM490.015 75.8551C492.875 75.8551 495.264 75.0455 497.18 73.4262C499.096 71.7799 500.54 69.5398 501.512 66.706C502.51 63.8722 503.01 60.647 503.01 57.0306C503.01 53.4141 502.51 50.1889 501.512 47.3551C500.54 44.5213 499.096 42.2813 497.18 40.635C495.264 38.9887 492.875 38.1655 490.015 38.1655C487.127 38.1655 484.698 38.9887 482.728 40.635C480.784 42.2813 479.314 44.5213 478.315 47.3551C477.343 50.1889 476.858 53.4141 476.858 57.0306C476.858 60.647 477.343 63.8722 478.315 66.706C479.314 69.5398 480.784 71.7799 482.728 73.4262C484.698 75.0455 487.127 75.8551 490.015 75.8551Z" fill="black"/>
<path d="M434.198 88V25.8182H451.444V88H434.198ZM442.861 17.8025C440.297 17.8025 438.098 16.9524 436.263 15.2521C434.454 13.5248 433.55 11.4602 433.55 9.05821C433.55 6.68321 434.454 4.64557 436.263 2.94528C438.098 1.21801 440.297 0.35437 442.861 0.35437C445.425 0.35437 447.611 1.21801 449.419 2.94528C451.255 4.64557 452.172 6.68321 452.172 9.05821C452.172 11.4602 451.255 13.5248 449.419 15.2521C447.611 16.9524 445.425 17.8025 442.861 17.8025Z" fill="black"/>
<path d="M390.971 88V25.8182H407.691V36.6676H408.339C409.472 32.8082 411.375 29.8935 414.047 27.9233C416.719 25.9261 419.795 24.9276 423.277 24.9276C424.14 24.9276 425.072 24.9815 426.07 25.0895C427.069 25.1974 427.946 25.3459 428.702 25.5348V40.8374C427.892 40.5945 426.772 40.3785 425.341 40.1896C423.911 40.0007 422.602 39.9062 421.415 39.9062C418.878 39.9062 416.611 40.4595 414.613 41.566C412.643 42.6456 411.078 44.157 409.917 46.1001C408.784 48.0433 408.217 50.2834 408.217 52.8203V88H390.971Z" fill="black"/>
<path d="M345.994 89.174C342.027 89.174 338.491 88.4858 335.388 87.1094C332.284 85.706 329.828 83.6414 328.02 80.9155C326.238 78.1627 325.348 74.7351 325.348 70.6328C325.348 67.1783 325.982 64.277 327.25 61.929C328.519 59.581 330.246 57.6918 332.432 56.2614C334.618 54.831 337.101 53.7514 339.881 53.0228C342.688 52.2941 345.63 51.7813 348.706 51.4844C352.323 51.1066 355.238 50.7557 357.451 50.4318C359.664 50.081 361.27 49.5682 362.268 48.8935C363.267 48.2188 363.766 47.2202 363.766 45.8978V45.6549C363.766 43.0909 362.956 41.1073 361.337 39.7039C359.745 38.3004 357.478 37.5987 354.536 37.5987C351.432 37.5987 348.963 38.287 347.128 39.6634C345.292 41.0128 344.078 42.7131 343.484 44.7642L327.534 43.4688C328.343 39.6904 329.936 36.4247 332.311 33.6719C334.686 30.8921 337.749 28.76 341.5 27.2756C345.279 25.7642 349.651 25.0085 354.617 25.0085C358.071 25.0085 361.378 25.4134 364.535 26.223C367.72 27.0327 370.54 28.2877 372.996 29.9879C375.479 31.6882 377.436 33.8743 378.866 36.5462C380.297 39.1911 381.012 42.3622 381.012 46.0597V88H364.657V79.3772H364.171C363.172 81.3203 361.836 83.0341 360.163 84.5185C358.49 85.9759 356.479 87.1229 354.131 87.9595C351.783 88.7692 349.071 89.174 345.994 89.174ZM350.933 77.272C353.47 77.272 355.71 76.7727 357.653 75.7742C359.596 74.7486 361.121 73.3722 362.228 71.6449C363.334 69.9176 363.888 67.961 363.888 65.7749V59.1762C363.348 59.527 362.606 59.8509 361.661 60.1478C360.743 60.4176 359.704 60.674 358.544 60.9169C357.383 61.1328 356.223 61.3352 355.062 61.5242C353.902 61.6861 352.849 61.8345 351.905 61.9695C349.88 62.2664 348.113 62.7387 346.601 63.3864C345.09 64.0341 343.916 64.9112 343.079 66.0178C342.243 67.0973 341.824 68.4468 341.824 70.0661C341.824 72.4141 342.674 74.2088 344.375 75.4503C346.102 76.6648 348.288 77.272 350.933 77.272Z" fill="black"/>
<path d="M320.448 25.8182V38.7727H283.002V25.8182H320.448ZM291.503 10.9205H308.749V68.8921C308.749 70.4844 308.992 71.7259 309.478 72.6165C309.963 73.4801 310.638 74.0874 311.502 74.4382C312.392 74.7891 313.418 74.9645 314.578 74.9645C315.388 74.9645 316.198 74.897 317.007 74.7621C317.817 74.6002 318.438 74.4787 318.87 74.3978L321.582 87.2309C320.718 87.5007 319.504 87.8111 317.939 88.162C316.373 88.5398 314.47 88.7692 312.23 88.8502C308.074 89.0121 304.431 88.4588 301.3 87.1904C298.196 85.9219 295.781 83.9517 294.054 81.2798C292.326 78.608 291.476 75.2344 291.503 71.1591V10.9205Z" fill="black"/>
<path d="M237.124 52.0512V88H219.878V25.8182H236.314V36.7891H237.043C238.419 33.1726 240.727 30.3118 243.965 28.2067C247.204 26.0746 251.131 25.0085 255.746 25.0085C260.064 25.0085 263.829 25.9531 267.041 27.8424C270.252 29.7316 272.749 32.4304 274.53 35.9389C276.311 39.4205 277.202 43.5767 277.202 48.4077V88H259.956V51.4844C259.983 47.679 259.011 44.7102 257.041 42.5781C255.071 40.4191 252.359 39.3395 248.904 39.3395C246.583 39.3395 244.532 39.8388 242.751 40.8374C240.996 41.836 239.62 43.2933 238.621 45.2095C237.65 47.0987 237.151 49.3793 237.124 52.0512Z" fill="black"/>
<path d="M183.503 89.2145C177.107 89.2145 171.601 87.9191 166.986 85.3281C162.398 82.7103 158.863 79.0128 156.38 74.2358C153.897 69.4318 152.655 63.7507 152.655 57.1925C152.655 50.7962 153.897 45.1826 156.38 40.3516C158.863 35.5206 162.358 31.7557 166.865 29.0568C171.399 26.358 176.716 25.0085 182.815 25.0085C186.917 25.0085 190.736 25.6698 194.272 26.9922C197.834 28.2877 200.938 30.2443 203.583 32.8622C206.255 35.4801 208.333 38.7727 209.817 42.7401C211.301 46.6804 212.044 51.2955 212.044 56.5853V61.3218H159.537V50.6343H195.81C195.81 48.1513 195.27 45.9517 194.191 44.0355C193.111 42.1193 191.613 40.6215 189.697 39.5419C187.808 38.4354 185.608 37.8821 183.098 37.8821C180.48 37.8821 178.159 38.4894 176.135 39.7039C174.138 40.8914 172.573 42.4972 171.439 44.5213C170.306 46.5185 169.725 48.745 169.698 51.201V61.3622C169.698 64.4389 170.265 67.0973 171.399 69.3374C172.559 71.5774 174.192 73.3047 176.297 74.5192C178.402 75.7337 180.899 76.3409 183.787 76.3409C185.703 76.3409 187.457 76.071 189.049 75.5313C190.642 74.9915 192.005 74.1818 193.138 73.1023C194.272 72.0227 195.135 70.7003 195.729 69.135L211.679 70.1875C210.87 74.0199 209.21 77.3665 206.7 80.2273C204.217 83.0611 201.005 85.2742 197.065 86.8665C193.152 88.4318 188.631 89.2145 183.503 89.2145Z" fill="black"/>
<path d="M151.764 25.8182L130.024 88H110.593L88.8532 25.8182H107.071L119.985 70.3089H120.632L133.506 25.8182H151.764Z" fill="black"/>
<path d="M45.7684 52.0512V88H28.5226V25.8182H44.9587V36.7891H45.6874C47.0638 33.1726 49.3714 30.3118 52.61 28.2067C55.8486 26.0746 59.7755 25.0085 64.3905 25.0085C68.7087 25.0085 72.4736 25.9531 75.6853 27.8424C78.8969 29.7316 81.3934 32.4304 83.1746 35.9389C84.9559 39.4205 85.8465 43.5767 85.8465 48.4077V88H68.6008V51.4844C68.6278 47.679 67.6562 44.7102 65.686 42.5781C63.7158 40.4191 61.0035 39.3395 57.5489 39.3395C55.2279 39.3395 53.1768 39.8388 51.3955 40.8374C49.6413 41.836 48.2648 43.2933 47.2663 45.2095C46.2947 47.0987 45.7954 49.3793 45.7684 52.0512Z" fill="black"/>
<path d="M0.882102 88V25.8182H18.1278V88H0.882102ZM9.54545 17.8025C6.98153 17.8025 4.78196 16.9524 2.94673 15.2521C1.13849 13.5248 0.234375 11.4602 0.234375 9.05821C0.234375 6.68321 1.13849 4.64557 2.94673 2.94528C4.78196 1.21801 6.98153 0.35437 9.54545 0.35437C12.1094 0.35437 14.2955 1.21801 16.1037 2.94528C17.9389 4.64557 18.8565 6.68321 18.8565 9.05821C18.8565 11.4602 17.9389 13.5248 16.1037 15.2521C14.2955 16.9524 12.1094 17.8025 9.54545 17.8025Z" fill="black"/>
</svg>
